<?xml version="1.0" encoding="UTF-8" standalone="no"?>
<!-- Created with Inkscape (http://www.inkscape.org/) -->

<svg
   xmlns:dc="http://purl.org/dc/elements/1.1/"
   xmlns:cc="http://creativecommons.org/ns#"
   xmlns:rdf="http://www.w3.org/1999/02/22-rdf-syntax-ns#"
   xmlns:svg="http://www.w3.org/2000/svg"
   xmlns="http://www.w3.org/2000/svg"
   xmlns:xlink="http://www.w3.org/1999/xlink"
   xmlns:sodipodi="http://sodipodi.sourceforge.net/DTD/sodipodi-0.dtd"
   xmlns:inkscape="http://www.inkscape.org/namespaces/inkscape"
   inkscape:export-ydpi="90.000000"
   inkscape:export-xdpi="90.000000"
   inkscape:export-filename="/home/jimmac/Desktop/wi-fi.png"
   width="100"
   height="100"
   id="svg11300"
   sodipodi:version="0.32"
   inkscape:version="0.48.1 r9760"
   sodipodi:docname="kontakt.svg"
   inkscape:output_extension="org.inkscape.output.svg.inkscape"
   version="1.1">
  <defs
     id="defs3">
    <radialGradient
       inkscape:collect="always"
       xlink:href="#linearGradient5060"
       id="radialGradient5031"
       gradientUnits="userSpaceOnUse"
       gradientTransform="matrix(-2.774389,0,0,1.969706,112.7623,-872.8854)"
       cx="605.71429"
       cy="486.64789"
       fx="605.71429"
       fy="486.64789"
       r="117.14286" />
    <linearGradient
       inkscape:collect="always"
       id="linearGradient5060">
      <stop
         style="stop-color:black;stop-opacity:1;"
         offset="0"
         id="stop5062" />
      <stop
         style="stop-color:black;stop-opacity:0;"
         offset="1"
         id="stop5064" />
    </linearGradient>
    <radialGradient
       inkscape:collect="always"
       xlink:href="#linearGradient5060"
       id="radialGradient5029"
       gradientUnits="userSpaceOnUse"
       gradientTransform="matrix(2.774389,0,0,1.969706,-1891.633,-872.8854)"
       cx="605.71429"
       cy="486.64789"
       fx="605.71429"
       fy="486.64789"
       r="117.14286" />
    <linearGradient
       id="linearGradient5048">
      <stop
         style="stop-color:black;stop-opacity:0;"
         offset="0"
         id="stop5050" />
      <stop
         id="stop5056"
         offset="0.5"
         style="stop-color:black;stop-opacity:1;" />
      <stop
         style="stop-color:black;stop-opacity:0;"
         offset="1"
         id="stop5052" />
    </linearGradient>
    <linearGradient
       inkscape:collect="always"
       xlink:href="#linearGradient5048"
       id="linearGradient5027"
       gradientUnits="userSpaceOnUse"
       gradientTransform="matrix(2.774389,0,0,1.969706,-1892.179,-872.8854)"
       x1="302.85715"
       y1="366.64789"
       x2="302.85715"
       y2="609.50507" />
    <linearGradient
       id="linearGradient4344">
      <stop
         style="stop-color:#727e0a;stop-opacity:1;"
         offset="0"
         id="stop4346" />
      <stop
         style="stop-color:#5b6508;stop-opacity:1.0000000;"
         offset="1.0000000"
         id="stop4348" />
    </linearGradient>
    <linearGradient
       inkscape:collect="always"
       id="linearGradient3816">
      <stop
         style="stop-color:#000000;stop-opacity:1;"
         offset="0"
         id="stop3818" />
      <stop
         style="stop-color:#000000;stop-opacity:0;"
         offset="1"
         id="stop3820" />
    </linearGradient>
    <linearGradient
       id="linearGradient4338">
      <stop
         id="stop4340"
         offset="0.0000000"
         style="stop-color:#e9b15e;stop-opacity:1.0000000;" />
      <stop
         id="stop4342"
         offset="1.0000000"
         style="stop-color:#966416;stop-opacity:1.0000000;" />
    </linearGradient>
    <linearGradient
       id="linearGradient3824">
      <stop
         style="stop-color:#ffffff;stop-opacity:1;"
         offset="0"
         id="stop3826" />
      <stop
         style="stop-color:#c9c9c9;stop-opacity:1.0000000;"
         offset="1.0000000"
         id="stop3828" />
    </linearGradient>
    <linearGradient
       inkscape:collect="always"
       id="linearGradient4356">
      <stop
         style="stop-color:#000000;stop-opacity:1;"
         offset="0"
         id="stop4358" />
      <stop
         style="stop-color:#000000;stop-opacity:0;"
         offset="1"
         id="stop4360" />
    </linearGradient>
    <linearGradient
       id="linearGradient6732">
      <stop
         style="stop-color:#ffffff;stop-opacity:1;"
         offset="0"
         id="stop6734" />
      <stop
         style="stop-color:#dddddd;stop-opacity:1;"
         offset="1"
         id="stop6736" />
    </linearGradient>
    <linearGradient
       inkscape:collect="always"
       xlink:href="#linearGradient6732"
       id="linearGradient6738"
       x1="16.25"
       y1="12.25"
       x2="31.5"
       y2="36.625"
       gradientUnits="userSpaceOnUse"
       gradientTransform="matrix(2.3082131,0,0,2.0831206,-3.9148515,-52.778257)" />
    <radialGradient
       inkscape:collect="always"
       xlink:href="#linearGradient4344"
       id="radialGradient6948"
       gradientUnits="userSpaceOnUse"
       gradientTransform="matrix(1,0,0,0.681917,19.76231,14.9041)"
       cx="16.214741"
       cy="19.836468"
       fx="16.214741"
       fy="19.836468"
       r="13.56536" />
    <radialGradient
       inkscape:collect="always"
       xlink:href="#linearGradient3816"
       id="radialGradient6950"
       gradientUnits="userSpaceOnUse"
       cx="31.112698"
       cy="19.008621"
       fx="31.112698"
       fy="19.008621"
       r="8.6620579" />
    <radialGradient
       inkscape:collect="always"
       xlink:href="#linearGradient4338"
       id="radialGradient6952"
       gradientUnits="userSpaceOnUse"
       gradientTransform="matrix(0.787998,0,0,0.787998,6.221198,3.617627)"
       cx="29.344931"
       cy="17.064077"
       fx="29.344931"
       fy="17.064077"
       r="9.1620579" />
    <linearGradient
       inkscape:collect="always"
       xlink:href="#linearGradient3824"
       id="linearGradient6954"
       gradientUnits="userSpaceOnUse"
       gradientTransform="translate(7.344424,-0.329669)"
       x1="30.935921"
       y1="29.553486"
       x2="30.935921"
       y2="35.803486" />
    <linearGradient
       inkscape:collect="always"
       xlink:href="#linearGradient4356"
       id="linearGradient6956"
       gradientUnits="userSpaceOnUse"
       gradientTransform="matrix(0.983375,0.181588,-0.181588,0.983375,12.69019,-3.154589)"
       x1="20.661695"
       y1="35.817974"
       x2="22.626925"
       y2="36.217758" />
    <linearGradient
       inkscape:collect="always"
       xlink:href="#linearGradient4356"
       id="linearGradient6958"
       gradientUnits="userSpaceOnUse"
       gradientTransform="matrix(-0.977685,0.210075,0.210075,0.977685,61.56807,-4.448329)"
       x1="22.686766"
       y1="36.3904"
       x2="21.408455"
       y2="35.739632" />
  </defs>
  <sodipodi:namedview
     stroke="#ef2929"
     fill="#eeeeec"
     id="base"
     pagecolor="#ffffff"
     bordercolor="#666666"
     borderopacity="0.25490196"
     inkscape:pageopacity="0.0"
     inkscape:pageshadow="2"
     inkscape:zoom="5.6568539"
     inkscape:cx="85.113037"
     inkscape:cy="58.767543"
     inkscape:current-layer="layer1"
     showgrid="false"
     inkscape:grid-bbox="true"
     inkscape:document-units="px"
     inkscape:showpageshadow="false"
     inkscape:window-width="1647"
     inkscape:window-height="1035"
     inkscape:window-x="0"
     inkscape:window-y="0"
     inkscape:window-maximized="1"
     fit-margin-top="0"
     fit-margin-left="0"
     fit-margin-right="0"
     fit-margin-bottom="0" />
  <metadata
     id="metadata4">
    <rdf:RDF>
      <cc:Work
         rdf:about="">
        <dc:format>image/svg+xml</dc:format>
        <dc:type
           rdf:resource="http://purl.org/dc/dcmitype/StillImage" />
        <dc:creator>
          <cc:Agent>
            <dc:title>Jakub Steiner</dc:title>
          </cc:Agent>
        </dc:creator>
        <dc:source>http://jimmac.musichall.cz</dc:source>
        <cc:license
           rdf:resource="http://creativecommons.org/licenses/publicdomain/" />
        <dc:title>New Contact</dc:title>
        <dc:subject>
          <rdf:Bag>
            <rdf:li>address</rdf:li>
            <rdf:li>contact</rdf:li>
            <rdf:li>e-mail</rdf:li>
            <rdf:li>person</rdf:li>
            <rdf:li>information</rdf:li>
            <rdf:li>card</rdf:li>
          </rdf:Bag>
        </dc:subject>
      </cc:Work>
      <cc:License
         rdf:about="http://creativecommons.org/licenses/publicdomain/">
        <cc:permits
           rdf:resource="http://creativecommons.org/ns#Reproduction" />
        <cc:permits
           rdf:resource="http://creativecommons.org/ns#Distribution" />
        <cc:permits
           rdf:resource="http://creativecommons.org/ns#DerivativeWorks" />
      </cc:License>
    </rdf:RDF>
  </metadata>
  <g
     id="layer1"
     inkscape:label="Layer 1"
     inkscape:groupmode="layer"
     transform="translate(0.00226244,51.74691)">
    <g
       style="display:inline"
       id="g5022"
       transform="matrix(0.05041394,0,0,0.03000896,94.546162,26.892408)">
      <rect
         y="-150.69685"
         x="-1559.2523"
         height="478.35718"
         width="1339.6335"
         id="rect4173"
         style="opacity:0.40206185;color:#000000;fill:url(#linearGradient5027);fill-opacity:1;fill-rule:nonzero;stroke:none;stroke-width:1;marker:none;visibility:visible;display:inline;overflow:visible" />
      <path
         sodipodi:nodetypes="cccc"
         id="path5058"
         d="m -219.61876,-150.68038 c 0,0 0,478.33079 0,478.33079 142.874166,0.90045 345.40022,-107.16966 345.40014,-239.196175 0,-132.026537 -159.436816,-239.134595 -345.40014,-239.134615 z"
         style="opacity:0.40206185;color:#000000;fill:url(#radialGradient5029);fill-opacity:1;fill-rule:nonzero;stroke:none;stroke-width:1;marker:none;visibility:visible;display:inline;overflow:visible"
         inkscape:connector-curvature="0" />
      <path
         style="opacity:0.40206185;color:#000000;fill:url(#radialGradient5031);fill-opacity:1;fill-rule:nonzero;stroke:none;stroke-width:1;marker:none;visibility:visible;display:inline;overflow:visible"
         d="m -1559.2523,-150.68038 c 0,0 0,478.33079 0,478.33079 -142.8742,0.90045 -345.4002,-107.16966 -345.4002,-239.196175 0,-132.026537 159.4368,-239.134595 345.4002,-239.134615 z"
         id="path5018"
         sodipodi:nodetypes="cccc"
         inkscape:connector-curvature="0" />
    </g>
    <rect
       style="color:#000000;fill:url(#linearGradient6738);fill-opacity:1;fill-rule:evenodd;stroke:#939393;stroke-width:2.08333468;stroke-linecap:butt;stroke-linejoin:miter;stroke-miterlimit:4;stroke-opacity:1;stroke-dasharray:none;stroke-dashoffset:0;marker:none;visibility:visible;display:inline;overflow:visible"
       id="rect5857"
       width="91.462929"
       height="62.493618"
       x="5.3180013"
       y="-34.03017"
       rx="5.7297578"
       ry="5.7285814" />
    <rect
       ry="3.6454616"
       rx="3.6462107"
       y="-31.677649"
       x="7.3896198"
       height="57.788597"
       width="87.302605"
       id="rect6740"
       style="color:#000000;fill:none;stroke:#ffffff;stroke-width:2.08333492;stroke-linecap:butt;stroke-linejoin:miter;stroke-miterlimit:4;stroke-opacity:1;stroke-dasharray:none;stroke-dashoffset:0;marker:none;visibility:visible;display:inline;overflow:visible" />
    <g
       id="g6935"
       transform="matrix(0.90592684,0,0,0.90574083,-8.5913366,-34.152138)">
      <path
         sodipodi:nodetypes="cczcczc"
         id="path2329"
         d="m 32.623488,41.30637 10.606602,0 c 3.005204,0 5.980484,-1.101932 7.071067,-4.242641 1.035639,-2.982476 0.176777,-8.662058 -6.540737,-13.258252 l -12.551146,0 c -6.717514,4.24264 -7.556991,10.044831 -6.010407,13.435028 1.575595,3.45379 4.24264,4.065865 7.424621,4.065865 z"
         style="color:#000000;fill:url(#radialGradient6948);fill-opacity:1;fill-rule:evenodd;stroke:#404604;stroke-width:2.29990602px;stroke-linecap:round;stroke-linejoin:round;stroke-miterlimit:4;stroke-opacity:1;stroke-dasharray:none;stroke-dashoffset:0;marker:none;visibility:visible;display:inline;overflow:visible"
         inkscape:connector-curvature="0" />
      <path
         style="color:#000000;fill:#9db029;fill-opacity:1;fill-rule:evenodd;stroke:none;stroke-width:1px;marker:none;visibility:visible;display:inline;overflow:visible"
         d="m 37.694681,26.457128 c 0,0 -2.151323,1.660335 -1.965991,3.660533 -2.041226,-1.800794 -2.099873,-5.251524 -2.099873,-5.251524 l 4.065864,1.590991 z"
         id="path3812"
         sodipodi:nodetypes="cccc"
         inkscape:connector-curvature="0" />
      <path
         style="opacity:0.21518986;color:#000000;fill:none;stroke:#ffffff;stroke-width:2.29990482px;stroke-linecap:round;stroke-linejoin:round;stroke-miterlimit:4;stroke-opacity:1;stroke-dasharray:none;stroke-dashoffset:0;marker:none;visibility:visible;display:inline;overflow:visible"
         d="m 33.2112,39.482542 9.297094,0 c 2.378845,0 4.734002,-0.872261 5.59728,-3.358368 0.819787,-2.360854 -0.08536,-6.85667 -5.402777,-10.494902 l -10.38576,0 c -5.317416,3.358368 -6.207218,7.951238 -4.982982,10.634833 1.247203,2.733935 3.358368,3.218437 5.877145,3.218437 z"
         id="path3838"
         sodipodi:nodetypes="cczcczc"
         inkscape:connector-curvature="0" />
      <path
         sodipodi:nodetypes="cccc"
         id="path3810"
         d="m 38.673109,26.457128 c 0,0 2.151323,1.660335 1.965991,3.660533 2.041226,-1.800794 2.099873,-5.251524 2.099873,-5.251524 l -4.065864,1.590991 z"
         style="color:#000000;fill:#9db029;fill-opacity:1;fill-rule:evenodd;stroke:none;stroke-width:1px;marker:none;visibility:visible;display:inline;overflow:visible"
         inkscape:connector-curvature="0" />
      <path
         transform="translate(6.512314,3.170331)"
         sodipodi:type="arc"
         style="color:#000000;fill:url(#radialGradient6950);fill-opacity:1;fill-rule:evenodd;stroke:none;stroke-width:1px;marker:none;visibility:visible;display:inline;overflow:visible"
         id="path3814"
         sodipodi:cx="31.112698"
         sodipodi:cy="19.008621"
         sodipodi:rx="8.6620579"
         sodipodi:ry="8.6620579"
         d="m 39.774755,19.008621 c 0,4.783923 -3.878135,8.662058 -8.662057,8.662058 -4.783923,0 -8.662058,-3.878135 -8.662058,-8.662058 0,-4.783922 3.878135,-8.662058 8.662058,-8.662058 4.783922,0 8.662057,3.878136 8.662057,8.662058 z" />
      <path
         transform="translate(6.637314,-0.329669)"
         d="m 39.774755,19.008621 c 0,4.783923 -3.878135,8.662058 -8.662057,8.662058 -4.783923,0 -8.662058,-3.878135 -8.662058,-8.662058 0,-4.783922 3.878135,-8.662058 8.662058,-8.662058 4.783922,0 8.662057,3.878136 8.662057,8.662058 z"
         sodipodi:ry="8.6620579"
         sodipodi:rx="8.6620579"
         sodipodi:cy="19.008621"
         sodipodi:cx="31.112698"
         id="path2327"
         style="color:#000000;fill:url(#radialGradient6952);fill-opacity:1;fill-rule:evenodd;stroke:#6f4709;stroke-width:2.29990602px;stroke-linecap:round;stroke-linejoin:round;stroke-miterlimit:4;stroke-opacity:1;stroke-dasharray:none;stroke-dashoffset:0;marker:none;visibility:visible;display:inline;overflow:visible"
         sodipodi:type="arc" />
      <path
         transform="matrix(0.747377,0,0,0.747377,14.49712,4.47236)"
         sodipodi:type="arc"
         style="opacity:0.12658231;color:#000000;fill:none;stroke:#ffffff;stroke-width:3.07730651px;stroke-linecap:round;stroke-linejoin:round;stroke-miterlimit:4;stroke-opacity:1;stroke-dasharray:none;stroke-dashoffset:0;marker:none;visibility:visible;display:inline;overflow:visible"
         id="path3834"
         sodipodi:cx="31.112698"
         sodipodi:cy="19.008621"
         sodipodi:rx="8.6620579"
         sodipodi:ry="8.6620579"
         d="m 39.774755,19.008621 c 0,4.783923 -3.878135,8.662058 -8.662057,8.662058 -4.783923,0 -8.662058,-3.878135 -8.662058,-8.662058 0,-4.783922 3.878135,-8.662058 8.662058,-8.662058 4.783922,0 8.662057,3.878136 8.662057,8.662058 z" />
      <path
         id="path4173"
         d="m 42.346208,33.704972 4.24264,0 -2.474873,-2.298097 -0.53033,0.707107 -0.530331,-0.53033 -0.707106,2.12132 z"
         style="color:#000000;fill:url(#linearGradient6954);fill-opacity:1;fill-rule:evenodd;stroke:none;stroke-width:1px;marker:none;visibility:visible;display:inline;overflow:visible"
         inkscape:connector-curvature="0" />
      <path
         sodipodi:nodetypes="cccc"
         id="path4368"
         d="m 28.310268,40.272078 c -1.247607,-0.544969 -1.805994,-1.858277 -1.805994,-1.858277 0.841281,-4.069136 3.719925,-7.046216 3.719925,-7.046216 0,0 -2.279321,6.411514 -1.913931,8.904493 z"
         style="opacity:0.22784807;color:#000000;fill:url(#linearGradient6956);fill-opacity:1;fill-rule:evenodd;stroke:none;stroke-width:1px;marker:none;visibility:visible;display:inline;overflow:visible"
         inkscape:connector-curvature="0" />
      <path
         style="opacity:0.22784807;color:#000000;fill:url(#linearGradient6958);fill-opacity:1;fill-rule:evenodd;stroke:none;stroke-width:1px;marker:none;visibility:visible;display:inline;overflow:visible"
         d="m 47.215975,39.413727 c 1.231251,-0.580978 1.80438,-2.002321 1.80438,-2.002321 -0.95912,-4.042983 -3.976149,-6.842821 -3.976149,-6.842821 0,0 2.464593,6.342602 2.171769,8.845142 z"
         id="path4370"
         sodipodi:nodetypes="cccc"
         inkscape:connector-curvature="0" />
    </g>
    <rect
       style="opacity:0.3976608;color:#000000;fill:#8d8d8d;fill-opacity:1;fill-rule:evenodd;stroke:none;stroke-width:1;marker:none;visibility:visible;display:inline;overflow:visible"
       id="rect6978"
       width="36.201653"
       height="4.1662416"
       x="43.752254"
       y="-10.12042"
       rx="2.1486592"
       ry="2.1482182" />
    <rect
       ry="2.1482182"
       rx="2.1486592"
       y="-3.8249216"
       x="43.752254"
       height="4.1662416"
       width="29.169678"
       id="rect6980"
       style="opacity:0.3976608;color:#000000;fill:#8d8d8d;fill-opacity:1;fill-rule:evenodd;stroke:none;stroke-width:1;marker:none;visibility:visible;display:inline;overflow:visible" />
    <g
       id="g7033"
       transform="matrix(2.0835484,0,0,1.7359331,-0.00226244,-41.321092)"
       style="opacity:0.48538011">
      <rect
         ry="0"
         rx="0"
         y="30"
         x="6"
         height="6"
         width="1"
         id="rect7003"
         style="color:#000000;fill:#000000;fill-opacity:1;fill-rule:evenodd;stroke:none;stroke-width:1;marker:none;visibility:visible;display:inline;overflow:visible" />
      <rect
         style="color:#000000;fill:#000000;fill-opacity:1;fill-rule:evenodd;stroke:none;stroke-width:1;marker:none;visibility:visible;display:inline;overflow:visible"
         id="rect7005"
         width="1.9375"
         height="3.6000135"
         x="8.0846453"
         y="30"
         rx="0"
         ry="0" />
      <rect
         y="30"
         x="11"
         height="3.6000135"
         width="1"
         id="rect7007"
         style="color:#000000;fill:#000000;fill-opacity:1;fill-rule:evenodd;stroke:none;stroke-width:1;marker:none;visibility:visible;display:inline;overflow:visible" />
      <rect
         y="30"
         x="13"
         height="3.6000135"
         width="2"
         id="rect7009"
         style="color:#000000;fill:#000000;fill-opacity:1;fill-rule:evenodd;stroke:none;stroke-width:1;marker:none;visibility:visible;display:inline;overflow:visible" />
      <rect
         y="30"
         x="16"
         height="3.6000135"
         width="1"
         id="rect7011"
         style="color:#000000;fill:#000000;fill-opacity:1;fill-rule:evenodd;stroke:none;stroke-width:1;marker:none;visibility:visible;display:inline;overflow:visible" />
      <rect
         y="30"
         x="18"
         height="3.6000135"
         width="1"
         id="rect7013"
         style="color:#000000;fill:#000000;fill-opacity:1;fill-rule:evenodd;stroke:none;stroke-width:1;marker:none;visibility:visible;display:inline;overflow:visible" />
      <rect
         y="30"
         x="21"
         height="3.6000135"
         width="1"
         id="rect7015"
         style="color:#000000;fill:#000000;fill-opacity:1;fill-rule:evenodd;stroke:none;stroke-width:1;marker:none;visibility:visible;display:inline;overflow:visible" />
      <rect
         y="30"
         x="23"
         height="3.6000135"
         width="2"
         id="rect7017"
         style="color:#000000;fill:#000000;fill-opacity:1;fill-rule:evenodd;stroke:none;stroke-width:1;marker:none;visibility:visible;display:inline;overflow:visible" />
      <rect
         y="30"
         x="26"
         height="3.6000135"
         width="2"
         id="rect7019"
         style="color:#000000;fill:#000000;fill-opacity:1;fill-rule:evenodd;stroke:none;stroke-width:1;marker:none;visibility:visible;display:inline;overflow:visible" />
      <rect
         y="30"
         x="29"
         height="3.6000135"
         width="1"
         id="rect7021"
         style="color:#000000;fill:#000000;fill-opacity:1;fill-rule:evenodd;stroke:none;stroke-width:1;marker:none;visibility:visible;display:inline;overflow:visible" />
      <rect
         y="30"
         x="31"
         height="3.6000135"
         width="1"
         id="rect7023"
         style="color:#000000;fill:#000000;fill-opacity:1;fill-rule:evenodd;stroke:none;stroke-width:1;marker:none;visibility:visible;display:inline;overflow:visible" />
      <rect
         y="30"
         x="33"
         height="3.6000135"
         width="1"
         id="rect7025"
         style="color:#000000;fill:#000000;fill-opacity:1;fill-rule:evenodd;stroke:none;stroke-width:1;marker:none;visibility:visible;display:inline;overflow:visible" />
      <rect
         y="30"
         x="35"
         height="3.6000135"
         width="2"
         id="rect7027"
         style="color:#000000;fill:#000000;fill-opacity:1;fill-rule:evenodd;stroke:none;stroke-width:1;marker:none;visibility:visible;display:inline;overflow:visible" />
      <rect
         y="30"
         x="39"
         height="3.6000135"
         width="2"
         id="rect7029"
         style="color:#000000;fill:#000000;fill-opacity:1;fill-rule:evenodd;stroke:none;stroke-width:1;marker:none;visibility:visible;display:inline;overflow:visible" />
      <rect
         y="30"
         x="42"
         height="6"
         width="1"
         id="rect7031"
         style="color:#000000;fill:#000000;fill-opacity:1;fill-rule:evenodd;stroke:none;stroke-width:1;marker:none;visibility:visible;display:inline;overflow:visible" />
    </g>
    <path
       style="font-size:1.58812129px;font-style:normal;font-variant:normal;font-weight:normal;font-stretch:normal;line-height:120.00000477%;writing-mode:lr-tb;text-anchor:start;fill:#000000;fill-opacity:1;stroke:none;font-family:Bitstream Vera Sans"
       d="m 18.619433,19.918896 c 0.156182,0.03339 0.277897,0.102851 0.365147,0.208372 0.08832,0.105543 0.132482,0.235843 0.132484,0.390919 -2e-6,0.237996 -0.08186,0.422146 -0.245583,0.552452 -0.163725,0.130315 -0.396383,0.195461 -0.697977,0.195461 -0.101251,0 -0.205732,-0.0103 -0.313443,-0.03068 -0.106637,-0.01935 -0.217042,-0.049 -0.331216,-0.08884 l 0,-0.314994 c 0.09048,0.05276 0.189574,0.09262 0.297287,0.119547 0.107711,0.02692 0.22027,0.04038 0.337677,0.04038 0.204653,0 0.360298,-0.04038 0.466934,-0.121146 0.107711,-0.08077 0.161568,-0.198153 0.16157,-0.352146 -2e-6,-0.142154 -0.05008,-0.253074 -0.150259,-0.332766 -0.0991,-0.08077 -0.237508,-0.121146 -0.415232,-0.121146 l -0.28113,0 0,-0.268148 0.294055,0 c 0.160491,2e-6 0.283283,-0.03178 0.368378,-0.0953 0.0851,-0.06462 0.127637,-0.157231 0.127638,-0.27784 -10e-7,-0.123839 -0.04416,-0.21861 -0.132486,-0.284303 -0.08724,-0.06677 -0.212733,-0.100139 -0.376455,-0.10016 -0.0894,2e-6 -0.185267,0.0097 -0.287593,0.02908 -0.102327,0.01935 -0.214886,0.04955 -0.337677,0.09047 l 0,-0.290766 c 0.123867,-0.03446 0.239658,-0.06031 0.347371,-0.07753 0.108789,-0.01724 0.211116,-0.02585 0.306982,-0.02585 0.247736,4e-6 0.443773,0.05655 0.588109,0.169617 0.144334,0.111998 0.216501,0.263842 0.216502,0.45553 -1e-6,0.133533 -0.03824,0.246612 -0.114714,0.339225 -0.07647,0.09154 -0.185266,0.155086 -0.326369,0.190603 m 1.399186,1.02575 1.139059,0 0,0.274611 -1.531671,0 0,-0.274611 c 0.123869,-0.128149 0.292439,-0.299917 0.50571,-0.515299 0.214346,-0.216456 0.348987,-0.355916 0.403921,-0.418374 0.104481,-0.117383 0.177186,-0.216459 0.218118,-0.297228 0.042,-0.08184 0.06301,-0.162068 0.06301,-0.240687 -1e-6,-0.128149 -0.04524,-0.232609 -0.135718,-0.313379 -0.0894,-0.08077 -0.20627,-0.121145 -0.350604,-0.121145 -0.102329,2e-6 -0.210579,0.01788 -0.324754,0.05331 -0.113098,0.03554 -0.234275,0.0894 -0.36353,0.161542 l 0,-0.329532 c 0.13141,-0.05276 0.254202,-0.09261 0.368378,-0.119548 0.114174,-0.02692 0.218655,-0.04038 0.313442,-0.04038 0.249894,4e-6 0.449159,0.06246 0.597805,0.187386 0.148642,0.124932 0.222964,0.291843 0.222966,0.50076 -2e-6,0.09907 -0.01885,0.193316 -0.05655,0.282689 -0.03662,0.0883 -0.103945,0.192769 -0.201962,0.313376 -0.02692,0.03122 -0.112562,0.121692 -0.256894,0.271381 -0.144336,0.14861 -0.347912,0.356993 -0.61073,0.625142 m 2.722433,-1.852814 -0.824,1.287439 0.824,0 0,-1.287439 m -0.08563,-0.2843 0.410387,0 0,1.571739 0.34414,0 0,0.27138 -0.34414,0 0,0.568606 -0.324755,0 0,-0.568606 -1.088973,0 0,-0.314995 1.003341,-1.528124 m 1.299014,0 1.28124,0 0,0.274609 -0.98234,0 0,0.591221 c 0.04739,-0.01619 0.09479,-0.02799 0.142183,-0.03554 0.0474,-0.0086 0.09478,-0.01282 0.142179,-0.01282 0.269279,2e-6 0.482551,0.07377 0.639811,0.221304 0.15726,0.147537 0.235889,0.347302 0.235891,0.599297 -2e-6,0.259533 -0.08079,0.461453 -0.242351,0.605757 -0.161571,0.143227 -0.389382,0.214845 -0.683438,0.214845 -0.10125,0 -0.204655,-0.0086 -0.310211,-0.02585 -0.104482,-0.01724 -0.212733,-0.04309 -0.324753,-0.07753 l 0,-0.327918 c 0.09695,0.05278 0.197113,0.09208 0.300517,0.117928 0.103406,0.02585 0.212733,0.03878 0.327986,0.03878 0.186341,0 0.333908,-0.049 0.442698,-0.14699 0.108787,-0.09799 0.163184,-0.230996 0.163184,-0.398993 0,-0.167998 -0.0544,-0.300994 -0.163184,-0.398995 -0.10879,-0.09799 -0.256357,-0.146989 -0.442698,-0.146989 -0.08724,0 -0.174496,0.0097 -0.261741,0.02909 -0.08618,0.01935 -0.174495,0.04955 -0.264973,0.09047 l 0,-1.211516 m 3.855028,0.214839 c -0.168031,2e-6 -0.294593,0.08294 -0.379685,0.248767 -0.08401,0.164759 -0.126026,0.412994 -0.126026,0.744679 0,0.33061 0.042,0.578837 0.126026,0.744677 0.08509,0.16478 0.211654,0.247149 0.379685,0.247149 0.169108,0 0.295671,-0.08239 0.379687,-0.247149 0.08509,-0.165832 0.127638,-0.414067 0.12764,-0.744677 -2e-6,-0.331685 -0.04254,-0.579911 -0.12764,-0.744679 -0.08402,-0.165833 -0.210579,-0.248765 -0.379687,-0.248767 m 0,-0.258457 c 0.270358,4e-6 0.476627,0.107162 0.61881,0.321459 0.143255,0.213226 0.214883,0.523378 0.214885,0.930444 -2e-6,0.405993 -0.07164,0.716141 -0.214885,0.930444 -0.142183,0.213228 -0.348452,0.319841 -0.61881,0.319841 -0.270358,0 -0.477165,-0.106615 -0.620422,-0.319841 -0.142181,-0.214303 -0.213271,-0.524451 -0.213271,-0.930444 0,-0.407066 0.07109,-0.717218 0.213271,-0.930444 0.143257,-0.214303 0.350064,-0.321455 0.620422,-0.321459 m 1.41211,0.04361 1.281242,0 0,0.274609 -0.982337,0 0,0.59122 c 0.04739,-0.01619 0.09479,-0.02799 0.142179,-0.03554 0.04739,-0.0086 0.09479,-0.01282 0.142181,-0.01282 0.26928,2e-6 0.48255,0.07377 0.639812,0.221304 0.157258,0.147537 0.235889,0.347302 0.235891,0.599297 -2e-6,0.259533 -0.08079,0.461452 -0.242354,0.605757 -0.161568,0.143226 -0.389382,0.214844 -0.683435,0.214844 -0.10125,0 -0.204655,-0.0086 -0.310211,-0.02585 -0.104483,-0.01724 -0.212736,-0.04309 -0.324755,-0.07753 l 0,-0.327918 c 0.09695,0.05278 0.197115,0.09208 0.300519,0.117928 0.103402,0.02585 0.21273,0.03878 0.327983,0.03878 0.186342,0 0.333909,-0.049 0.442698,-0.14699 0.108789,-0.09799 0.163185,-0.230996 0.163187,-0.398994 -2e-6,-0.167998 -0.0544,-0.300994 -0.163187,-0.398994 -0.108789,-0.09799 -0.256356,-0.146989 -0.442698,-0.146989 -0.08724,0 -0.174495,0.0097 -0.261741,0.02908 -0.08617,0.01935 -0.174494,0.04955 -0.264974,0.09047 l 0,-1.211516 m 2.106858,0 1.281241,0 0,0.274609 -0.98234,0 0,0.591221 c 0.0474,-0.01619 0.09479,-0.02799 0.142182,-0.03554 0.04739,-0.0086 0.09478,-0.01282 0.142179,-0.01282 0.269282,2e-6 0.482552,0.07377 0.639815,0.221303 0.157257,0.147537 0.235885,0.347301 0.235887,0.599296 -2e-6,0.259534 -0.08078,0.461453 -0.242352,0.605759 -0.161569,0.143226 -0.389382,0.214843 -0.683436,0.214843 -0.10125,0 -0.204653,-0.0086 -0.310212,-0.02585 -0.10448,-0.01724 -0.212732,-0.04309 -0.324751,-0.07753 l 0,-0.327919 c 0.09695,0.05278 0.197111,0.09208 0.300516,0.117929 0.103404,0.02585 0.212732,0.03878 0.327987,0.03878 0.186339,0 0.333906,-0.049 0.442696,-0.146991 0.108789,-0.09799 0.163184,-0.230995 0.163184,-0.398993 0,-0.167998 -0.0544,-0.300994 -0.163184,-0.398993 -0.10879,-0.09799 -0.256357,-0.14699 -0.442696,-0.14699 -0.08724,0 -0.174495,0.0097 -0.261743,0.02909 -0.08618,0.01935 -0.174495,0.04955 -0.264973,0.09047 l 0,-1.211516 m 2.021225,0 1.55106,0 0,0.138915 -0.875703,2.272806 -0.34091,0 0.824,-2.137116 -1.158447,0 0,-0.274609 m 3.245917,0 1.281239,0 0,0.274609 -0.982338,0 0,0.591221 c 0.0474,-0.01619 0.09479,-0.02799 0.142179,-0.03554 0.0474,-0.0086 0.09479,-0.01282 0.142183,-0.01282 0.269278,2e-6 0.482548,0.07377 0.639811,0.221303 0.157257,0.147537 0.235888,0.347302 0.235891,0.599297 -3e-6,0.259533 -0.08079,0.461453 -0.242355,0.605758 -0.161569,0.143226 -0.389381,0.214843 -0.683434,0.214843 -0.10125,0 -0.204654,-0.0086 -0.310211,-0.02585 -0.104483,-0.01724 -0.212733,-0.04309 -0.324754,-0.07753 l 0,-0.327919 c 0.09695,0.05278 0.197113,0.09208 0.300517,0.117928 0.103402,0.02585 0.212731,0.03878 0.327984,0.03878 0.186342,0 0.333907,-0.049 0.442698,-0.14699 0.108789,-0.09799 0.163183,-0.230995 0.163185,-0.398993 -2e-6,-0.167998 -0.05439,-0.300995 -0.163185,-0.398994 -0.108791,-0.09799 -0.256356,-0.146989 -0.442698,-0.146989 -0.08724,0 -0.174495,0.0097 -0.261742,0.02909 -0.08618,0.01935 -0.174493,0.04954 -0.26497,0.09046 l 0,-1.211515 m 2.160172,2.137114 0.533176,0 0,-1.839891 -0.580031,0.11631 0,-0.297226 0.576802,-0.116309 0.326367,0 0,2.137114 0.533178,0 0,0.274611 -1.389492,0 0,-0.274611 m 2.748284,-1.922275 c -0.168032,2e-6 -0.294594,0.08294 -0.379687,0.248766 -0.08401,0.16476 -0.126023,0.412995 -0.126023,0.74468 0,0.33061 0.042,0.578837 0.126023,0.744677 0.0851,0.16478 0.211655,0.247149 0.379687,0.247149 0.169107,0 0.295669,-0.08239 0.379688,-0.247149 0.08509,-0.165833 0.127637,-0.414067 0.127637,-0.744677 0,-0.331685 -0.04255,-0.579911 -0.127637,-0.74468 -0.08401,-0.165831 -0.210581,-0.248764 -0.379688,-0.248766 m 0,-0.258457 c 0.270358,4e-6 0.476626,0.107163 0.618807,0.321459 0.143257,0.213226 0.214885,0.523378 0.214888,0.930444 -3e-6,0.405993 -0.07163,0.716141 -0.214888,0.930444 -0.142181,0.213228 -0.348449,0.319842 -0.618807,0.319842 -0.27036,0 -0.477166,-0.106616 -0.620424,-0.319842 -0.14218,-0.214303 -0.213271,-0.524451 -0.213271,-0.930444 0,-0.407066 0.07109,-0.717218 0.213271,-0.930444 0.143258,-0.214303 0.350064,-0.321455 0.620424,-0.321459 m 2.147249,1.119444 c -0.146491,2e-6 -0.262818,0.05007 -0.348988,0.150228 -0.08509,0.100159 -0.127641,0.237457 -0.127641,0.411915 0,0.173382 0.04255,0.310688 0.127641,0.411916 0.08618,0.100159 0.202497,0.150229 0.348988,0.150229 0.146488,0 0.262278,-0.05007 0.347374,-0.150229 0.08617,-0.101232 0.129253,-0.238532 0.129255,-0.411916 -2e-6,-0.174454 -0.04308,-0.311765 -0.129255,-0.411915 -0.08509,-0.100159 -0.200886,-0.150228 -0.347374,-0.150228 m 0.64789,-1.02252 0,0.297225 c -0.08186,-0.03878 -0.164801,-0.06838 -0.248816,-0.08884 -0.08293,-0.0204 -0.16534,-0.03068 -0.247199,-0.03068 -0.215425,2e-6 -0.380225,0.0727 -0.4944,0.218073 -0.1131,0.145392 -0.177727,0.36507 -0.193882,0.659064 0.06355,-0.09369 0.143256,-0.165307 0.239121,-0.214841 0.09587,-0.05062 0.201421,-0.07592 0.316673,-0.07592 0.242352,2e-6 0.433543,0.07377 0.57357,0.221304 0.141102,0.146464 0.211653,0.346225 0.211655,0.599296 -2e-6,0.247688 -0.07325,0.446377 -0.219733,0.596068 -0.146489,0.149681 -0.34145,0.224534 -0.584879,0.224534 -0.278976,0 -0.492247,-0.106616 -0.639813,-0.319842 -0.147567,-0.214304 -0.221349,-0.524451 -0.221349,-0.930444 0,-0.381222 0.09048,-0.68491 0.271436,-0.911063 0.180956,-0.227223 0.423848,-0.340836 0.728675,-0.34084 0.08186,4e-6 0.16426,0.008 0.247202,0.02422 0.08401,0.01619 0.171258,0.0404 0.261739,0.0727 m 1.777256,-0.05331 1.281241,0 0,0.274609 -0.982339,0 0,0.591221 c 0.0474,-0.01619 0.09478,-0.02799 0.142181,-0.03554 0.0474,-0.0086 0.09478,-0.01282 0.142181,-0.01282 0.26928,3e-6 0.482551,0.07377 0.639813,0.221304 0.157257,0.147537 0.235889,0.347301 0.235889,0.599296 0,0.259534 -0.0808,0.461453 -0.242353,0.605759 -0.161571,0.143226 -0.389381,0.214843 -0.683435,0.214843 -0.101253,0 -0.204655,-0.0086 -0.310213,-0.02585 -0.104482,-0.01724 -0.212732,-0.04309 -0.324752,-0.07753 l 0,-0.327919 c 0.09695,0.05278 0.197114,0.09208 0.300518,0.117929 0.103403,0.02585 0.21273,0.03878 0.327983,0.03878 0.186343,0 0.333909,-0.049 0.442699,-0.146991 0.108788,-0.09799 0.163183,-0.230995 0.163185,-0.398993 -2e-6,-0.167998 -0.05439,-0.300994 -0.163185,-0.398993 -0.10879,-0.09799 -0.256356,-0.14699 -0.442699,-0.14699 -0.08724,0 -0.174494,0.0097 -0.26174,0.02909 -0.08617,0.01935 -0.174496,0.04955 -0.264974,0.09047 l 0,-1.211516 m 3.000333,0.284301 -0.824002,1.287439 0.824002,0 0,-1.287439 m -0.08562,-0.284301 0.410384,0 0,1.57174 0.344142,0 0,0.271379 -0.344142,0 0,0.568606 -0.324752,0 0,-0.568606 -1.088975,0 0,-0.314995 1.003343,-1.528124 m 1.993759,0.214839 c -0.168033,2e-6 -0.294597,0.08294 -0.379689,0.248767 -0.08401,0.16476 -0.126022,0.412994 -0.126022,0.744679 0,0.33061 0.042,0.578837 0.126022,0.744677 0.08509,0.164781 0.211656,0.24715 0.379689,0.24715 0.169106,0 0.295669,-0.08239 0.379686,-0.24715 0.08509,-0.165832 0.127636,-0.414067 0.127638,-0.744677 -2e-6,-0.331685 -0.04254,-0.579911 -0.127638,-0.744679 -0.08402,-0.165831 -0.21058,-0.248765 -0.379686,-0.248767 m 0,-0.258457 c 0.270356,4e-6 0.476626,0.107163 0.618806,0.321459 0.143256,0.213226 0.214885,0.523378 0.214887,0.930444 -2e-6,0.405993 -0.07164,0.716141 -0.214887,0.930444 -0.14218,0.213228 -0.34845,0.319842 -0.618806,0.319842 -0.27036,0 -0.477169,-0.106616 -0.620427,-0.319842 -0.14218,-0.214303 -0.213269,-0.524451 -0.213269,-0.930444 0,-0.407066 0.07109,-0.717218 0.213269,-0.930444 0.143258,-0.214303 0.350067,-0.321455 0.620427,-0.321459 m 2.147246,1.119444 c -0.146491,2e-6 -0.26282,0.05007 -0.348989,0.150229 -0.08509,0.100159 -0.127639,0.237457 -0.127639,0.411915 0,0.173381 0.04255,0.310687 0.127639,0.411916 0.08618,0.100159 0.202498,0.150228 0.348989,0.150228 0.146487,0 0.262276,-0.05007 0.347371,-0.150228 0.08618,-0.101233 0.129254,-0.238533 0.129254,-0.411916 0,-0.174454 -0.04308,-0.311765 -0.129254,-0.411915 -0.08509,-0.100159 -0.200884,-0.150229 -0.347371,-0.150229 m 0.647889,-1.02252 0,0.297225 c -0.08186,-0.03878 -0.164799,-0.06838 -0.248815,-0.08884 -0.08293,-0.0204 -0.16534,-0.03068 -0.247201,-0.03068 -0.215426,2e-6 -0.380227,0.0727 -0.494401,0.218074 -0.113097,0.145392 -0.177724,0.36507 -0.193882,0.659063 0.06355,-0.09368 0.143258,-0.165306 0.239122,-0.214841 0.09587,-0.05062 0.201421,-0.07592 0.316675,-0.07592 0.242352,2e-6 0.433541,0.07377 0.573569,0.221304 0.141103,0.146465 0.211654,0.346225 0.211656,0.599297 -2e-6,0.247688 -0.07326,0.446377 -0.219734,0.596068 -0.146492,0.149681 -0.341449,0.224533 -0.584878,0.224533 -0.278977,0 -0.492246,-0.106616 -0.639813,-0.319842 -0.147568,-0.214303 -0.221349,-0.524451 -0.221349,-0.930444 0,-0.381222 0.09048,-0.684909 0.271437,-0.911062 0.180956,-0.227223 0.423845,-0.340837 0.728672,-0.340841 0.08186,4e-6 0.16426,0.008 0.247201,0.02422 0.08401,0.01619 0.17126,0.0404 0.261741,0.0727 m 1.777259,-0.05331 1.281241,0 0,0.274609 -0.98234,0 0,0.59122 c 0.0474,-0.01619 0.09479,-0.02799 0.142181,-0.03554 0.0474,-0.0086 0.09479,-0.01282 0.14218,-0.01282 0.269281,3e-6 0.482551,0.07377 0.639812,0.221304 0.157261,0.147537 0.235889,0.347302 0.235891,0.599297 -2e-6,0.259533 -0.08079,0.461453 -0.242352,0.605758 -0.161571,0.143226 -0.389383,0.214843 -0.683438,0.214843 -0.10125,0 -0.204654,-0.0086 -0.310211,-0.02585 -0.104481,-0.01724 -0.212733,-0.04309 -0.324752,-0.07753 l 0,-0.327919 c 0.09695,0.05278 0.197112,0.09208 0.300516,0.117928 0.103405,0.02585 0.212732,0.03878 0.327987,0.03878 0.186339,0 0.333907,-0.049 0.442697,-0.14699 0.108789,-0.09799 0.163184,-0.230996 0.163184,-0.398994 0,-0.167998 -0.05439,-0.300994 -0.163184,-0.398993 -0.10879,-0.09799 -0.256358,-0.146989 -0.442697,-0.146989 -0.08725,0 -0.174496,0.0097 -0.261743,0.02909 -0.08618,0.01935 -0.174494,0.04954 -0.264972,0.09046 l 0,-1.211515 m 3.00033,0.284301 -0.824,1.287439 0.824,0 0,-1.287439 m -0.08562,-0.284301 0.410386,0 0,1.57174 0.344143,0 0,0.271378 -0.344143,0 0,0.568607 -0.324754,0 0,-0.568607 -1.088972,0 0,-0.314994 1.00334,-1.528124 m 2.034152,1.075826 c -0.14649,2e-6 -0.262819,0.05007 -0.348988,0.150228 -0.08509,0.100159 -0.12764,0.237457 -0.12764,0.411915 0,0.173382 0.04254,0.310688 0.12764,0.411916 0.08618,0.100159 0.202498,0.150229 0.348988,0.150229 0.146488,0 0.26228,-0.05007 0.347374,-0.150229 0.08616,-0.101232 0.129253,-0.238532 0.129255,-0.411916 -2e-6,-0.174454 -0.04309,-0.311765 -0.129255,-0.411915 -0.08509,-0.100159 -0.200886,-0.150228 -0.347374,-0.150228 m 0.64789,-1.02252 0,0.297224 c -0.08187,-0.03878 -0.164801,-0.06838 -0.248815,-0.08884 -0.08294,-0.0204 -0.165341,-0.03068 -0.2472,-0.03068 -0.215427,2e-6 -0.380228,0.0727 -0.494401,0.218073 -0.113098,0.145392 -0.177726,0.36507 -0.193884,0.659064 0.06355,-0.09368 0.14326,-0.165307 0.239123,-0.214842 0.09587,-0.05062 0.20142,-0.07592 0.316675,-0.07592 0.242352,1e-6 0.433541,0.07377 0.573569,0.221304 0.141102,0.146464 0.211653,0.346225 0.211655,0.599296 -2e-6,0.247688 -0.07325,0.446377 -0.219732,0.596068 -0.146493,0.149682 -0.341451,0.224534 -0.58488,0.224534 -0.278977,0 -0.492247,-0.106616 -0.639813,-0.319842 -0.147567,-0.214304 -0.221349,-0.524451 -0.221349,-0.930444 0,-0.381222 0.09048,-0.68491 0.271436,-0.911063 0.180957,-0.227223 0.423849,-0.340836 0.728676,-0.34084 0.08186,4e-6 0.164258,0.008 0.247198,0.02422 0.08401,0.01619 0.171261,0.0404 0.261742,0.0727 m 0.723829,-0.05331 1.281238,0 0,0.274609 -0.982337,0 0,0.591221 c 0.0474,-0.01619 0.09478,-0.02799 0.142182,-0.03554 0.0474,-0.0086 0.09478,-0.01282 0.142179,-0.01282 0.26928,3e-6 0.48255,0.07377 0.639812,0.221304 0.157259,0.147537 0.235889,0.347301 0.235891,0.599296 -2e-6,0.259534 -0.08079,0.461453 -0.242354,0.605759 -0.161569,0.143226 -0.389382,0.214843 -0.683436,0.214843 -0.10125,0 -0.204655,-0.0086 -0.310211,-0.02585 -0.104481,-0.01724 -0.212731,-0.04309 -0.324754,-0.07753 l 0,-0.327919 c 0.09695,0.05278 0.197114,0.09208 0.300519,0.117929 0.103405,0.02585 0.212732,0.03878 0.327983,0.03878 0.186343,0 0.333908,-0.049 0.4427,-0.146991 0.108788,-0.09799 0.163182,-0.230995 0.163184,-0.398993 -2e-6,-0.167998 -0.0544,-0.300994 -0.163184,-0.398993 -0.108792,-0.09799 -0.256357,-0.14699 -0.4427,-0.14699 -0.08724,0 -0.174494,0.0097 -0.261738,0.02909 -0.08618,0.01935 -0.174496,0.04955 -0.264974,0.09047 l 0,-1.211516 m 3.07465,0 1.55106,0 0,0.138915 -0.875702,2.272806 -0.34091,0 0.823999,-2.137116 -1.158447,0 0,-0.274609 m 2.887238,0.214839 c -0.168034,2e-6 -0.294596,0.08294 -0.379687,0.248767 -0.08402,0.164759 -0.126023,0.412994 -0.126023,0.744679 0,0.33061 0.042,0.578836 0.126023,0.744677 0.08509,0.164781 0.211653,0.247149 0.379687,0.247149 0.169107,0 0.295668,-0.08238 0.379685,-0.247149 0.08509,-0.165832 0.127638,-0.414067 0.12764,-0.744677 -2e-6,-0.331685 -0.04255,-0.579911 -0.12764,-0.744679 -0.08402,-0.165832 -0.210578,-0.248765 -0.379685,-0.248767 m 0,-0.258457 c 0.270357,4e-6 0.476625,0.107162 0.618808,0.321459 0.143256,0.213226 0.214884,0.523378 0.214886,0.930444 -2e-6,0.405993 -0.07163,0.716141 -0.214886,0.930444 -0.142183,0.213228 -0.348451,0.319841 -0.618808,0.319841 -0.270359,0 -0.477168,-0.106615 -0.620424,-0.319841 -0.142182,-0.214303 -0.213272,-0.524451 -0.21327,-0.930444 -2e-6,-0.407066 0.07109,-0.717218 0.21327,-0.930444 0.143256,-0.214303 0.350065,-0.321455 0.620424,-0.321459 M 69.987,19.884505 c -0.146489,2e-6 -0.26282,0.05007 -0.34899,0.150229 -0.0851,0.100158 -0.127638,0.237457 -0.127638,0.411915 0,0.173381 0.04254,0.310687 0.127638,0.411915 0.08617,0.10016 0.202501,0.150228 0.34899,0.150228 0.146487,0 0.262278,-0.05007 0.347372,-0.150228 0.08618,-0.101232 0.129255,-0.238532 0.129255,-0.411915 0,-0.174454 -0.04309,-0.311765 -0.129255,-0.411915 -0.08509,-0.100159 -0.200885,-0.150229 -0.347372,-0.150229 m 0.64789,-1.022521 0,0.297226 c -0.08186,-0.03878 -0.164803,-0.06838 -0.248815,-0.08885 -0.08294,-0.0204 -0.16534,-0.03068 -0.247201,-0.03068 -0.215427,2e-6 -0.380226,0.0727 -0.4944,0.218074 -0.1131,0.145392 -0.177727,0.36507 -0.193883,0.659063 0.06355,-0.09368 0.143257,-0.165306 0.239122,-0.214842 0.09587,-0.05062 0.201422,-0.07591 0.316675,-0.07591 0.242353,2e-6 0.43354,0.07377 0.57357,0.221303 0.141099,0.146465 0.211652,0.346226 0.211654,0.599298 -2e-6,0.247688 -0.07324,0.446377 -0.219734,0.596067 -0.146491,0.149682 -0.341451,0.224533 -0.584878,0.224533 -0.278977,0 -0.492247,-0.106615 -0.639813,-0.319841 -0.147566,-0.214303 -0.221348,-0.524451 -0.221348,-0.930444 0,-0.381222 0.09047,-0.68491 0.271434,-0.911062 0.180956,-0.227223 0.423847,-0.340837 0.728675,-0.340841 0.08187,4e-6 0.164261,0.008 0.247201,0.02422 0.08402,0.01619 0.171261,0.0404 0.261741,0.0727 m 0.723832,-0.05331 1.28124,0 0,0.274609 -0.982337,0 0,0.59122 c 0.0474,-0.01619 0.09479,-0.02799 0.142179,-0.03554 0.0474,-0.0086 0.09479,-0.01282 0.142182,-0.01282 0.26928,2e-6 0.482549,0.07377 0.639811,0.221304 0.157258,0.147537 0.235889,0.347302 0.235891,0.599297 -2e-6,0.259533 -0.08079,0.461453 -0.242353,0.605757 -0.161571,0.143226 -0.389382,0.214844 -0.683436,0.214844 -0.10125,0 -0.204654,-0.0086 -0.310212,-0.02585 -0.104482,-0.01724 -0.212734,-0.04309 -0.324753,-0.07753 l 0,-0.327918 c 0.09695,0.05278 0.197113,0.09208 0.300518,0.117928 0.103403,0.02585 0.212731,0.03878 0.327984,0.03878 0.186343,0 0.333907,-0.049 0.442697,-0.14699 0.108789,-0.09799 0.163185,-0.230997 0.163187,-0.398994 -2e-6,-0.167998 -0.0544,-0.300994 -0.163187,-0.398994 -0.10879,-0.09799 -0.256354,-0.146989 -0.442697,-0.146989 -0.08724,0 -0.174495,0.0097 -0.261742,0.02909 -0.08617,0.01935 -0.174494,0.04955 -0.264972,0.09047 l 0,-1.211516 m 3.07465,0 1.55106,0 0,0.138916 -0.8757,2.272806 -0.340911,0 0.824,-2.137116 -1.158449,0 0,-0.274609 m 2.927627,1.075826 c -0.14649,2e-6 -0.26282,0.05007 -0.34899,0.150228 -0.08509,0.100158 -0.127638,0.237456 -0.127638,0.411914 0,0.173382 0.04254,0.310689 0.127638,0.411916 0.08618,0.100159 0.2025,0.150229 0.34899,0.150229 0.146487,0 0.262278,-0.05007 0.347372,-0.150229 0.08618,-0.101231 0.129255,-0.238532 0.129255,-0.411916 0,-0.174453 -0.04309,-0.311764 -0.129255,-0.411914 -0.08509,-0.10016 -0.200885,-0.150228 -0.347372,-0.150228 m 0.64789,-1.022521 0,0.297225 c -0.08187,-0.03878 -0.164802,-0.06838 -0.248814,-0.08885 -0.08294,-0.0204 -0.165341,-0.03068 -0.247202,-0.03068 -0.215426,3e-6 -0.380227,0.0727 -0.494401,0.218073 -0.113099,0.145393 -0.177726,0.365071 -0.193881,0.659064 0.06355,-0.09369 0.143255,-0.165307 0.239121,-0.214841 0.09587,-0.05062 0.201422,-0.07591 0.316674,-0.07591 0.242353,2e-6 0.433542,0.07377 0.57357,0.221304 0.1411,0.146464 0.211652,0.346225 0.211654,0.599296 -2e-6,0.247688 -0.07324,0.446378 -0.219733,0.596068 -0.14649,0.149682 -0.34145,0.224534 -0.584878,0.224534 -0.278976,0 -0.492247,-0.106615 -0.639814,-0.319842 -0.147565,-0.214303 -0.221347,-0.52445 -0.221347,-0.930443 0,-0.381222 0.09047,-0.68491 0.271434,-0.911063 0.180956,-0.227223 0.423849,-0.340836 0.728674,-0.34084 0.08187,4e-6 0.164262,0.008 0.247201,0.02422 0.08402,0.01619 0.171262,0.0404 0.261742,0.0727 m 0.638198,-0.05331 1.551059,0 0,0.138916 -0.875703,2.272806 -0.34091,0 0.824,-2.137117 -1.158446,0 0,-0.274609 m 2.198948,2.361648 0,-0.297223 c 0.08187,0.03875 0.164801,0.06838 0.248816,0.08884 0.08403,0.0204 0.166416,0.03068 0.247201,0.03068 0.215423,0 0.379685,-0.07215 0.492784,-0.216457 0.114175,-0.145391 0.179339,-0.365608 0.1955,-0.66068 -0.06248,0.09262 -0.141645,0.163687 -0.237505,0.213227 -0.09587,0.04955 -0.201964,0.07431 -0.318293,0.07431 -0.241277,0 -0.432466,-0.0727 -0.573569,-0.218073 -0.140026,-0.146465 -0.210039,-0.346223 -0.210039,-0.599297 0,-0.247686 0.07325,-0.446375 0.219734,-0.596068 0.146488,-0.149682 0.341447,-0.224531 0.584879,-0.224535 0.278973,4e-6 0.491704,0.107162 0.638195,0.321459 0.147566,0.213226 0.221348,0.523377 0.22135,0.930444 -2e-6,0.380147 -0.09047,0.683834 -0.271435,0.911059 -0.179883,0.226151 -0.422235,0.339227 -0.72706,0.339227 -0.08186,0 -0.1648,-0.008 -0.248815,-0.02422 -0.08402,-0.01619 -0.171263,-0.04038 -0.261743,-0.0727 m 0.649508,-1.022518 c 0.146488,0 0.262279,-0.05007 0.347371,-0.150228 0.08618,-0.10016 0.129254,-0.237458 0.129254,-0.411916 0,-0.173381 -0.04308,-0.310145 -0.129254,-0.4103 -0.08509,-0.101232 -0.200883,-0.151848 -0.347371,-0.151848 -0.14649,2e-6 -0.26282,0.05062 -0.348989,0.151848 -0.0851,0.10016 -0.127639,0.236919 -0.127639,0.4103 0,0.174454 0.04254,0.311765 0.127639,0.411916 0.08617,0.100158 0.202499,0.150228 0.348989,0.150228 m 1.45735,1.022518 0,-0.297223 c 0.08187,0.03875 0.164798,0.06838 0.248816,0.08884 0.08401,0.0204 0.166414,0.03068 0.2472,0.03068 0.215423,0 0.379684,-0.07215 0.492784,-0.216456 0.114175,-0.145392 0.179339,-0.365609 0.195497,-0.660681 -0.06248,0.09261 -0.141643,0.163687 -0.237506,0.213227 -0.09587,0.04955 -0.201961,0.07431 -0.318289,0.07431 -0.241277,0 -0.432467,-0.0727 -0.57357,-0.218074 -0.140026,-0.146465 -0.210039,-0.346223 -0.210039,-0.599297 0,-0.247686 0.07325,-0.446375 0.219735,-0.596068 0.146487,-0.149682 0.341447,-0.22453 0.584876,-0.224535 0.278975,5e-6 0.491708,0.107162 0.638198,0.321459 0.147565,0.213226 0.221347,0.523378 0.221349,0.930444 -2e-6,0.380147 -0.09047,0.683834 -0.271436,0.911059 -0.179881,0.226151 -0.422233,0.339227 -0.727058,0.339227 -0.08187,0 -0.164803,-0.008 -0.248818,-0.02422 -0.08401,-0.01619 -0.171261,-0.04038 -0.261739,-0.0727 m 0.649496,-1.023735 c 0.146488,0 0.26228,-0.05007 0.347374,-0.150229 0.08618,-0.100159 0.129253,-0.237457 0.129255,-0.411915 -2e-6,-0.173381 -0.04308,-0.310145 -0.129255,-0.410301 -0.08509,-0.101231 -0.200886,-0.151847 -0.347374,-0.151847 -0.146488,2e-6 -0.262818,0.05062 -0.348987,0.151847 -0.0851,0.10016 -0.127641,0.23692 -0.127639,0.410301 -2e-6,0.174454 0.04254,0.311765 0.127639,0.411915 0.08617,0.100159 0.202499,0.150229 0.348987,0.150229"
       id="text7050"
       inkscape:connector-curvature="0" />
    <rect
       ry="2.1482182"
       rx="2.1486592"
       y="-16.427536"
       x="43.752254"
       height="4.1662416"
       width="36.201653"
       id="rect4106"
       style="opacity:0.3976608;color:#000000;fill:#8d8d8d;fill-opacity:1;fill-rule:evenodd;stroke:none;stroke-width:1;marker:none;visibility:visible;display:inline;overflow:visible" />
    <rect
       ry="2.1482182"
       rx="2.1486592"
       y="-22.716787"
       x="43.752254"
       height="4.1662416"
       width="36.201653"
       id="rect4110"
       style="opacity:0.3976608;color:#000000;fill:#8d8d8d;fill-opacity:1;fill-rule:evenodd;stroke:none;stroke-width:1;marker:none;visibility:visible;display:inline;overflow:visible" />
  </g>
</svg>
