<?xml version="1.0" encoding="UTF-8" standalone="no"?>
<!-- Created with Inkscape (http://www.inkscape.org/) -->

<svg
   xmlns:dc="http://purl.org/dc/elements/1.1/"
   xmlns:cc="http://creativecommons.org/ns#"
   xmlns:rdf="http://www.w3.org/1999/02/22-rdf-syntax-ns#"
   xmlns:svg="http://www.w3.org/2000/svg"
   xmlns="http://www.w3.org/2000/svg"
   xmlns:xlink="http://www.w3.org/1999/xlink"
   xmlns:sodipodi="http://sodipodi.sourceforge.net/DTD/sodipodi-0.dtd"
   xmlns:inkscape="http://www.inkscape.org/namespaces/inkscape"
   id="svg2"
   version="1.1"
   inkscape:version="0.48.2 r9819"
   width="100"
   height="100"
   xml:space="preserve"
   sodipodi:docname="octocat.svg"
   inkscape:export-filename="/home/churchyard/Dokumenty/hroncok/octocat.png"
   inkscape:export-xdpi="90"
   inkscape:export-ydpi="90"><metadata
     id="metadata8"><rdf:RDF><cc:Work
         rdf:about=""><dc:format>image/svg+xml</dc:format><dc:type
           rdf:resource="http://purl.org/dc/dcmitype/StillImage" /><dc:title></dc:title></cc:Work></rdf:RDF></metadata><defs
     id="defs6"><linearGradient
       id="linearGradient10932"><stop
         style="stop-color:#555753;stop-opacity:1;"
         offset="0"
         id="stop10934" /><stop
         style="stop-color:#888a85;stop-opacity:1;"
         offset="1"
         id="stop10936" /></linearGradient><linearGradient
       id="linearGradient3101"
       inkscape:collect="always"><stop
         id="stop3103"
         offset="0"
         style="stop-color:#000000;stop-opacity:1;" /><stop
         id="stop3105"
         offset="1"
         style="stop-color:#000000;stop-opacity:0;" /></linearGradient><radialGradient
       inkscape:collect="always"
       xlink:href="#linearGradient3101"
       id="radialGradient11251"
       gradientUnits="userSpaceOnUse"
       gradientTransform="matrix(1,0,0,0.351613,0,16.55413)"
       cx="17.3125"
       cy="25.53125"
       fx="17.3125"
       fy="25.53125"
       r="9.6875" /><linearGradient
       inkscape:collect="always"
       xlink:href="#linearGradient10932"
       id="linearGradient10938"
       x1="80.362457"
       y1="142.24721"
       x2="200.00768"
       y2="64.908226"
       gradientUnits="userSpaceOnUse" /><radialGradient
       inkscape:collect="always"
       xlink:href="#linearGradient3101"
       id="radialGradient10953"
       gradientUnits="userSpaceOnUse"
       gradientTransform="matrix(1,0,0,0.351613,0,16.55413)"
       cx="17.3125"
       cy="25.53125"
       fx="17.3125"
       fy="25.53125"
       r="9.6875" /><linearGradient
       inkscape:collect="always"
       xlink:href="#linearGradient10932"
       id="linearGradient10955"
       gradientUnits="userSpaceOnUse"
       x1="80.362457"
       y1="142.24721"
       x2="200.00768"
       y2="64.908226" /><linearGradient
       inkscape:collect="always"
       xlink:href="#linearGradient10932"
       id="linearGradient10966"
       gradientUnits="userSpaceOnUse"
       x1="80.362457"
       y1="142.24721"
       x2="200.00768"
       y2="64.908226" /><linearGradient
       inkscape:collect="always"
       xlink:href="#linearGradient10932"
       id="linearGradient10982"
       gradientUnits="userSpaceOnUse"
       x1="80.362457"
       y1="142.24721"
       x2="200.00768"
       y2="64.908226" /><linearGradient
       inkscape:collect="always"
       xlink:href="#linearGradient10932"
       id="linearGradient10986"
       gradientUnits="userSpaceOnUse"
       x1="80.362457"
       y1="142.24721"
       x2="200.00768"
       y2="64.908226" /><linearGradient
       inkscape:collect="always"
       xlink:href="#linearGradient10932"
       id="linearGradient10992"
       gradientUnits="userSpaceOnUse"
       x1="80.362457"
       y1="142.24721"
       x2="200.00768"
       y2="64.908226" /></defs><sodipodi:namedview
     pagecolor="#ffffff"
     bordercolor="#666666"
     borderopacity="1"
     objecttolerance="10"
     gridtolerance="10"
     guidetolerance="10"
     inkscape:pageopacity="0"
     inkscape:pageshadow="2"
     inkscape:window-width="1680"
     inkscape:window-height="1010"
     id="namedview4"
     showgrid="false"
     inkscape:zoom="3.4962963"
     inkscape:cx="61.459162"
     inkscape:cy="83.180611"
     inkscape:window-x="0"
     inkscape:window-y="22"
     inkscape:window-maximized="1"
     inkscape:current-layer="g10"
     fit-margin-top="0"
     fit-margin-left="0"
     fit-margin-right="0"
     fit-margin-bottom="0" /><g
     id="g10"
     inkscape:groupmode="layer"
     inkscape:label="octocat"
     transform="matrix(1.25,0,0,-1.25,-61.046051,207.37675)"><path
       sodipodi:type="arc"
       style="opacity:0.40909089;color:#000000;fill:url(#radialGradient10953);fill-opacity:1;fill-rule:nonzero;stroke:none;stroke-width:1.10533953;marker:none;visibility:visible;display:inline;overflow:visible"
       id="path3099"
       sodipodi:cx="17.3125"
       sodipodi:cy="25.53125"
       sodipodi:rx="9.6875"
       sodipodi:ry="3.40625"
       d="m 27,25.53125 a 9.6875,3.40625 0 1 1 -19.375,0 9.6875,3.40625 0 1 1 19.375,0 z"
       transform="matrix(3.2857973,0,0,-2.872895,31.951475,178.07017)" /><path
       sodipodi:type="inkscape:offset"
       inkscape:radius="0"
       inkscape:original="M 88.34375 105.53125 C 78.931135 105.738 67.66797 107.01986 61.96875 115.34375 C 57.062191 123.49893 56.61298 134.82625 62.6875 142.5625 C 62.335533 146.88253 61.33553 152.42222 64.5625 155.8125 C 69.024398 156.96123 73.009404 153.7092 76.875 151.9375 C 80.311402 151.05256 83.763015 152.98475 87.28125 152.65625 C 91.504337 153.02184 95.835059 152.01199 99.84375 151.78125 C 103.71112 154.07859 108.58663 157.14921 113 155.5625 C 114.92384 151.64825 114.13049 147.01747 114.75 142.9375 C 121.06453 135.25368 120.37395 123.88173 116.46875 115.34375 C 110.62102 106.16867 98.094102 105.65123 88.34375 105.53125 z "
       style="fill:#888a85;fill-opacity:1;fill-rule:nonzero;stroke:#2e3436;stroke-width:2.3712;stroke-miterlimit:4;stroke-opacity:1;stroke-dasharray:none"
       id="path10988"
       d="m 88.34375,105.53125 c -9.412615,0.20675 -20.67578,1.48861 -26.375,9.8125 -4.906559,8.15518 -5.35577,19.4825 0.71875,27.21875 -0.351967,4.32003 -1.35197,9.85972 1.875,13.25 4.461898,1.14873 8.446904,-2.1033 12.3125,-3.875 3.436402,-0.88494 6.888015,1.04725 10.40625,0.71875 4.223087,0.36559 8.553809,-0.64426 12.5625,-0.875 3.86737,2.29734 8.74288,5.36796 13.15625,3.78125 1.92384,-3.91425 1.13049,-8.54503 1.75,-12.625 6.31453,-7.68382 5.62395,-19.05577 1.71875,-27.59375 -5.84773,-9.17508 -18.374648,-9.69252 -28.125,-9.8125 z" /><path
       sodipodi:type="inkscape:offset"
       inkscape:radius="-0.89845198"
       inkscape:original="M 88.375 107.75 C 79.706676 108.12315 69.270486 108.78048 63.8125 116.53125 C 60.150362 122.52635 59.461217 130.49139 61.875 137.0625 C 62.756813 139.04823 63.993434 140.79676 65.5 142.375 C 63.900264 146.00325 64.147721 150.36253 65.59375 153.90625 C 70.108523 153.90725 73.943106 150.60002 77.78125 149.03125 C 84.963214 150.95105 92.70562 151.00559 99.875 149.15625 C 103.31142 151.37883 107.01448 153.76047 111.21875 153.90625 C 112.49212 150.51467 112.7763 146.57462 111.53125 143.09375 C 118.04757 137.47409 117.928 127.92975 116.09375 120.1875 C 114.47805 112.82576 106.74262 109.42862 100.03125 108.59375 C 96.239056 108.02139 92.288722 107.65275 88.375 107.75 z "
       style="fill:url(#linearGradient10992);fill-opacity:1;fill-rule:nonzero;stroke:none"
       id="path10990"
       d="m 88.40625,108.65625 c -4.326993,0.18627 -9.03339,0.44817 -13.28125,1.59375 -4.22577,1.13962 -7.951939,3.12154 -10.53125,6.75 -0.01205,0.0197 -0.01927,0.0427 -0.03125,0.0625 -3.460593,5.71034 -4.153099,13.35977 -1.875,19.625 0.0095,0.0213 0.0217,0.0412 0.03125,0.0625 0.832843,1.85356 2.006647,3.50108 3.4375,5 a 0.89854183,0.89854183 0 0 1 0.15625,1 c -1.385717,3.14285 -1.233491,6.93968 -0.09375,10.15625 3.830705,-0.29781 7.375793,-3.14801 11.21875,-4.71875 A 0.89854183,0.89854183 0 0 1 78,148.15625 c 7.030437,1.8793 14.642492,1.9342 21.65625,0.125 a 0.89854183,0.89854183 0 0 1 0.71875,0.125 c 3.21767,2.0811 6.55493,4.09986 10.15625,4.46875 0.99563,-3.05427 1.23235,-6.46022 0.15625,-9.46875 a 0.89854183,0.89854183 0 0 1 0.25,-1 c 3.0656,-2.64377 4.59087,-6.19254 5.125,-10.09375 0.53413,-3.90121 0.0553,-8.11145 -0.84375,-11.90625 a 0.89854183,0.89854183 0 0 1 0,-0.0312 c -0.74969,-3.41589 -2.89246,-5.8759 -5.71875,-7.65625 -2.82629,-1.78035 -6.34424,-2.81452 -9.59375,-3.21875 a 0.89854183,0.89854183 0 0 1 0,-0.0312 c -3.757441,-0.56711 -7.657652,-0.90798 -11.5,-0.8125 z" /><path
       inkscape:connector-curvature="0"
       id="path54"
       style="fill:#fcaf3e;fill-opacity:1;fill-rule:nonzero;stroke:none"
       d="m 107.29018,130.43586 c 2.40835,-2.18156 3.81703,-4.81616 3.81703,-7.65444 0,-13.25283 -9.88003,-13.6123 -22.066032,-13.6123 -12.187652,0 -22.066585,1.8353 -22.066585,13.6123 0,2.81956 1.389414,5.43765 3.768043,7.6104 3.966766,3.62106 10.681534,1.70374 18.298542,1.70374 7.58673,0 14.276172,1.93659 18.249002,-1.6597" /><path
       style="fill:#e9b96e;fill-opacity:1;fill-rule:nonzero;stroke:none"
       d="m 87.925518,110.2831 c -6.483391,0.22821 -15.00153,0.17218 -18.630344,6.60577 -2.850089,5.0804 -0.714837,12.70064 5.212367,14.2437 7.091643,1.01799 14.288893,-0.92613 21.417155,0.20643 4.798574,0.58925 10.660544,0.38601 12.987914,-4.59307 2.81029,-5.49605 0.25636,-13.83347 -6.19291,-15.29306 -4.746037,-1.33171 -9.874654,-1.1506 -14.794182,-1.16977 z"
       id="path11253"
       inkscape:connector-curvature="0" /><path
       inkscape:connector-curvature="0"
       id="path58"
       style="fill:#eeeeec;fill-opacity:1;fill-rule:nonzero;stroke:none"
       d="m 81.703319,122.10554 c 0,-3.65024 -2.055496,-6.60908 -4.591012,-6.60908 -2.535515,0 -4.592113,2.95884 -4.592113,6.60908 0,3.65024 2.056598,6.60797 4.592113,6.60797 2.535516,0 4.591012,-2.95773 4.591012,-6.60797" /><path
       inkscape:connector-curvature="0"
       id="path62"
       style="fill:#ad7fa8;fill-opacity:1;fill-rule:nonzero;stroke:none"
       d="m 80.230342,122.02274 c 0,-2.43312 -1.371248,-4.40495 -3.061225,-4.40495 -1.691078,0 -3.060675,1.97183 -3.060675,4.40495 0,2.43423 1.369597,4.40716 3.060675,4.40716 1.689977,0 3.061225,-1.97293 3.061225,-4.40716" /><path
       inkscape:connector-curvature="0"
       id="path66"
       style="fill:#eeeeec;fill-opacity:1;fill-rule:nonzero;stroke:none"
       d="m 106.33548,122.10554 c 0,-3.65024 -2.0555,-6.60908 -4.59212,-6.60908 -2.534962,0 -4.591009,2.95884 -4.591009,6.60908 0,3.65024 2.056047,6.60797 4.591009,6.60797 2.53662,0 4.59212,-2.95773 4.59212,-6.60797" /><path
       inkscape:connector-curvature="0"
       id="path70"
       style="fill:#ad7fa8;fill-opacity:1;fill-rule:nonzero;stroke:none"
       d="m 104.8614,122.02274 c 0,-2.43312 -1.3707,-4.40495 -3.06123,-4.40495 -1.68997,0 -3.060672,1.97183 -3.060672,4.40495 0,2.43423 1.370702,4.40716 3.060672,4.40716 1.69053,0 3.06123,-1.97293 3.06123,-4.40716" /><path
       inkscape:connector-curvature="0"
       id="path74"
       style="fill:#ad7fa8;fill-opacity:1;fill-rule:nonzero;stroke:none"
       d="m 90.254328,116.23625 c 0,-0.63415 -0.514149,-1.1483 -1.148303,-1.1483 -0.634705,0 -1.148304,0.51415 -1.148304,1.1483 0,0.63416 0.513599,1.14831 1.148304,1.14831 0.634154,0 1.148303,-0.51415 1.148303,-1.14831" /><path
       inkscape:connector-curvature="0"
       id="path78"
       style="fill:#ad7fa8;fill-opacity:1;fill-rule:nonzero;stroke:none"
       d="m 86.430797,113.33335 c -0.06771,0.19266 0.03358,0.40295 0.225147,0.47066 0.192117,0.0683 0.403502,-0.033 0.471211,-0.2246 0.295058,-0.83398 1.086099,-1.39437 1.969071,-1.39437 0.882972,0 1.674013,0.56039 1.969621,1.39437 0.06771,0.19267 0.278544,0.29286 0.471212,0.2246 0.192118,-0.0677 0.292306,-0.278 0.224596,-0.47066 -0.399098,-1.12794 -1.470885,-1.88595 -2.665429,-1.88595 -1.194544,0 -2.265229,0.75801 -2.665429,1.88595" /></g></svg>